HIERARCHY
ROOT Hips
{
	OFFSET 0.00000 0.00000 0.00000
	CHANNELS 6 Xposition Yposition Zposition Zrotation Yrotation Xrotation 
	JOINT LHipJoint
	{
		OFFSET 0 0 0
		CHANNELS 3 Zrotation Yrotation Xrotation
		JOINT LeftHip
		{
			OFFSET 1.34019 -1.87553 0.90315
			CHANNELS 3 Zrotation Yrotation Xrotation
			JOINT LeftKnee
			{
				OFFSET 2.55316 -7.01474 0.00000
				CHANNELS 3 Zrotation Yrotation Xrotation
				JOINT LeftAnkle
				{
					OFFSET 2.64657 -7.27139 0.00000
					CHANNELS 3 Zrotation Yrotation Xrotation
					JOINT LeftToe
					{
						OFFSET 0.24207 -0.66507 2.14489
						CHANNELS 3 Zrotation Yrotation Xrotation
						End Site
						{
							OFFSET 0.00000 -0.00000 1.12451
						}
					}
				}
			}
		}
	}
	JOINT RHipJoint
	{
		OFFSET 0 0 0
		CHANNELS 3 Zrotation Yrotation Xrotation
		JOINT RightHip
		{
			OFFSET -1.28320 -1.87553 0.90315
			CHANNELS 3 Zrotation Yrotation Xrotation
			JOINT RightKnee
			{
				OFFSET -2.60484 -7.15674 0.00000
				CHANNELS 3 Zrotation Yrotation Xrotation
				JOINT RightAnkle
				{
					OFFSET -2.60296 -7.15159 0.00000
					CHANNELS 3 Zrotation Yrotation Xrotation
					JOINT RightToe
					{
						OFFSET -0.31082 -0.85398 2.28998
						CHANNELS 3 Zrotation Yrotation Xrotation
						End Site
						{
							OFFSET -0.00000 -0.00000 1.21611
						}
					}
				}
			}
		}
	}
	JOINT lowerback
	{
		OFFSET 0 0 0
		CHANNELS 3 Zrotation Yrotation Xrotation
		JOINT Chest
		{
			OFFSET -0.00160 2.05581 -0.15156
			CHANNELS 3 Zrotation Yrotation Xrotation
			JOINT Chest2
			{
				OFFSET 0.04594 2.06326 -0.01617
				CHANNELS 3 Zrotation Yrotation Xrotation
				JOINT lowerneck
				{
					OFFSET 0 0 0
					CHANNELS 3 Zrotation Yrotation Xrotation
					JOINT Neck
					{
						OFFSET 0.03753 1.73883 0.26751
						CHANNELS 3 Zrotation Yrotation Xrotation
						JOINT Head
						{
							OFFSET -0.09795 1.76129 -0.31794
							CHANNELS 3 Zrotation Yrotation Xrotation
							End Site
							{
								OFFSET -0.03611 1.79987 -0.13846
							}
						}
					}
				}
				JOINT LeftCollar
				{
					OFFSET 0 0 0
					CHANNELS 3 Zrotation Yrotation Xrotation
					JOINT LeftShoulder
					{
						OFFSET 3.30667 1.29205 -0.22445
CHANNELS 3 Zrotation Xrotation Yrotation
						JOINT LeftElbow
						{
OFFSET 0 -4.927850 -0.000000
CHANNELS 3 Zrotation Xrotation Yrotation
							JOINT LeftWrist
							{
OFFSET 0 -3.440520 0.000000
CHANNELS 3 Zrotation Xrotation Yrotation
								JOINT lhand
								{
									OFFSET 0 0 0
CHANNELS 3 Zrotation Xrotation Yrotation
									JOINT LFingers
									{
OFFSET 0 -0.654330 0.000000
CHANNELS 3 Zrotation Xrotation Yrotation
										End Site
										{
OFFSET 0 -0.527530 0.000000
										}
									}
								}
								JOINT LThumb
								{
OFFSET 0 0.000000 0.000000
CHANNELS 3 Zrotation Xrotation Yrotation
									End Site
									{
OFFSET 0 -0.535590 0.535590
									}
								}
							}
						}
					}
				}
				JOINT RightCollar
				{
					OFFSET 0 0 0
					CHANNELS 3 Zrotation Yrotation Xrotation
					JOINT RightShoulder
					{
						OFFSET -3.20032 1.49783 -0.27688
CHANNELS 3 Zrotation Xrotation Yrotation
						JOINT RightElbow
						{
OFFSET 0 -5.091810 -0.000000
CHANNELS 3 Zrotation Xrotation Yrotation
							JOINT RightWrist
							{
OFFSET 0 -3.498650 -0.000000
CHANNELS 3 Zrotation Xrotation Yrotation
								JOINT rhand
								{
									OFFSET 0 0 0
CHANNELS 3 Zrotation Xrotation Yrotation
									JOINT RFingers
									{
OFFSET 0 -0.666410 0.000000
CHANNELS 3 Zrotation Xrotation Yrotation
										End Site
										{
OFFSET 0 -0.537280 0.000000
										}
									}
								}
								JOINT RThumb
								{
OFFSET 0 0.000000 0.000000
CHANNELS 3 Zrotation Xrotation Yrotation
									End Site
									{
OFFSET 0 -0.545480 0.545480
									}
								}
							}
						}
					}
				}
			}
		}
	}
}
MOTION
Frames: 8
Frame Time: 0.008333333333333333
0.715300 17.726800 -31.429900 -1.501700 1.597200 0.424600 0.000000 0.000000 0.000000 -20.970600 -4.838900 -9.087300 2.915000 10.556200 30.797500 0.240800 11.170300 -18.983900 0.057300 -1.544600 -4.248800 0.000000 0.000000 0.000000 19.499900 1.428800 -11.104100 -3.407500 -11.327100 33.391200 -0.551000 -11.921800 -22.956400 -0.007300 0.550900 -1.513800 -2.189700 -0.991100 2.273100 2.843100 -1.327900 -1.457600 4.223900 -0.595600 -2.658400 8.788800 1.357600 -21.522000 -9.612100 1.621200 24.746600 -4.853500 0.303800 11.826400 -0.000000 0.000000 0.000000 0.959600 6.246000 -19.031200 14.335400 -23.212100 2.959000 10.855700 -3.443500 -2.193700 0.000000 0.000000 0.000000 -7.125000 0.000000 0.000000 -12.606500 32.041200 -4.084500 -0.000000 0.000000 0.000000 -5.967300 4.552400 13.161100 -13.322500 -21.757900 -2.571600 -15.940600 1.209100 5.528300 0.000000 0.000000 0.000000 7.125000 0.000000 -0.000000 8.973100 35.607800 2.092000
0.695888 17.735012 -31.406794 -1.353238 1.839312 0.818256 0.000000 0.000000 0.000000 -21.007118 -4.833302 -9.384481 2.882629 10.502582 30.620153 0.301071 10.734236 -19.165310 0.103288 -2.072207 -5.705096 0.000000 0.000000 0.000000 19.430488 1.483700 -11.438324 -3.417206 -11.341594 33.440852 -0.521670 -12.195877 -22.976607 -0.009200 0.618341 -1.699159 -1.048730 -1.449267 2.262616 2.142014 -1.912568 -1.847672 2.885767 -0.906678 -3.060989 9.458366 2.499963 -21.490781 -9.457055 3.013632 25.282524 -4.707593 1.020370 12.201335 0.000000 0.000000 0.000000 1.895627 6.947064 -17.618060 14.228402 -23.060318 2.916945 10.813633 -3.748577 -1.880361 0.000000 0.000000 0.000000 -7.125000 0.000000 0.000000 -12.594649 31.728697 -4.177570 0.000000 0.000000 0.000000 -4.994415 4.836411 14.006372 -12.957117 -21.224311 -2.437741 -15.854025 2.092993 4.092515 0.000000 0.000000 0.000000 7.125000 0.000000 0.000000 8.854622 34.130568 2.385340
0.678505 17.738912 -31.373823 -1.215841 1.916729 1.022071 0.000000 0.000000 0.000000 -21.078172 -4.746341 -9.438774 2.856913 10.459819 30.478946 0.311765 10.604323 -19.139682 0.105506 -2.094341 -5.766464 0.000000 0.000000 0.000000 19.358301 1.548146 -11.445836 -3.404416 -11.322621 33.375793 -0.515705 -12.333522 -23.068419 -0.010253 0.654170 -1.797627 -1.517823 -0.782250 1.902544 2.089533 -1.038112 -1.862109 3.048600 -0.462336 -2.915600 9.021915 1.670752 -21.332954 -8.981735 1.824178 24.766327 -4.615122 0.504937 11.817371 0.000000 0.000000 0.000000 2.402218 6.879513 -19.507830 14.126749 -22.915653 2.877281 10.789918 -3.672740 -2.313933 0.000000 0.000000 0.000000 -7.125000 0.000000 0.000000 -12.675966 32.158556 -4.071280 0.000000 0.000000 0.000000 -4.639130 5.110002 12.317056 -13.016641 -21.311567 -2.459355 -15.968789 2.170719 4.262677 0.000000 0.000000 0.000000 7.125000 0.000000 0.000000 8.782447 34.309924 2.326870
0.658729 17.742865 -31.348705 -1.187547 1.988480 1.301141 0.000000 0.000000 0.000000 -20.988428 -4.683574 -9.716915 2.860800 10.466300 30.500300 0.327147 10.420833 -19.108236 0.110094 -2.139102 -5.890106 0.000000 0.000000 0.000000 19.442529 1.830327 -11.524994 -3.396241 -11.310341 33.333924 -0.497506 -12.624417 -23.215451 -0.010200 0.651594 -1.790642 -1.568059 -0.702321 1.731542 2.166189 -0.929618 -1.888552 3.149090 -0.406835 -2.851554 8.933143 1.597246 -21.792085 -8.728592 1.639388 24.831323 -4.540372 0.439017 11.909935 0.000000 0.000000 0.000000 2.502041 6.528614 -19.801371 13.945226 -22.656285 2.806948 10.878280 -4.000598 -2.097954 0.000000 0.000000 0.000000 -7.125000 0.000000 0.000000 -12.574765 31.946754 -4.103078 0.000000 0.000000 0.000000 -4.744031 4.925821 12.172403 -13.104841 -21.440702 -2.491490 -15.981527 2.138548 4.270116 0.000000 0.000000 0.000000 7.125000 0.000000 0.000000 8.773071 34.318104 2.322621
0.649823 17.743812 -31.324640 -1.375035 2.292223 1.414488 0.000000 0.000000 0.000000 -20.696013 -4.766993 -9.840754 2.883288 10.503652 30.623691 0.354871 10.154632 -19.129099 0.111994 -2.157753 -5.941871 0.000000 0.000000 0.000000 19.737640 1.815596 -11.471710 -3.372771 -11.275265 33.213977 -0.476883 -12.902191 -23.331497 -0.010800 0.671530 -1.845501 -1.290845 -0.906773 1.691039 2.338152 -1.186481 -2.140814 3.184120 -0.533540 -3.074186 8.816057 1.556627 -21.522543 -8.401132 1.554929 24.948999 -4.408227 0.438233 11.889598 0.000000 0.000000 0.000000 2.236922 7.157086 -19.412163 14.005808 -22.742994 2.830338 10.879743 -3.806699 -1.905904 0.000000 0.000000 0.000000 -7.125000 0.000000 0.000000 -12.546237 31.756004 -4.152438 0.000000 0.000000 0.000000 -4.863733 5.112232 12.160405 -13.097794 -21.430294 -2.488900 -16.117572 2.233310 4.498688 0.000000 0.000000 0.000000 7.125000 0.000000 0.000000 8.690771 34.558724 2.249068
0.640976 17.742165 -31.291958 -1.200102 2.349015 1.457742 0.000000 0.000000 0.000000 -20.857545 -4.657887 -9.727476 2.862875 10.469692 30.511382 0.360865 10.082745 -19.118256 0.114953 -2.186113 -6.020216 0.000000 0.000000 0.000000 19.572536 1.682130 -11.432179 -3.382742 -11.290255 33.265130 -0.510413 -12.792236 -23.512189 -0.010335 0.657156 -1.805984 -1.494470 -0.945680 1.503741 2.360426 -1.243267 -2.190205 3.320995 -0.557320 -3.011358 8.441224 1.256882 -21.249405 -7.833107 1.102847 24.664633 -4.182108 0.273171 11.673005 0.000000 0.000000 0.000000 2.088842 7.357592 -19.398636 14.101595 -22.879697 2.867454 10.801649 -3.656300 -1.695851 0.000000 0.000000 0.000000 -7.125000 0.000000 0.000000 -12.577995 31.545127 -4.228694 0.000000 0.000000 0.000000 -4.801599 5.215375 12.023547 -13.136580 -21.486971 -2.503063 -16.022484 2.030833 4.509631 0.000000 0.000000 0.000000 7.125000 0.000000 0.000000 8.770025 34.565919 2.268398
0.629981 17.741500 -31.267810 -1.075407 2.242407 1.493303 0.000000 0.000000 0.000000 -20.989665 -4.786327 -9.589186 2.853407 10.453884 30.459389 0.345081 10.317736 -19.196121 0.113359 -2.170611 -5.977317 0.000000 0.000000 0.000000 19.462838 1.679837 -11.427779 -3.394457 -11.307697 33.324884 -0.519699 -12.720292 -23.517343 -0.011941 0.704631 -1.936545 -2.056713 -2.117824 1.482895 3.485692 -2.800418 -2.132803 4.860264 -1.317231 -2.755103 9.231896 3.436511 -21.830257 -9.856183 4.485796 24.557317 -4.549786 1.594125 12.168075 0.000000 0.000000 0.000000 -0.658029 7.305798 -15.231499 14.287672 -23.144506 2.940223 10.846946 -3.264708 -1.953462 0.000000 0.000000 0.000000 -7.125000 0.000000 0.000000 -12.578791 31.802244 -4.149289 0.000000 0.000000 0.000000 -7.136190 4.435764 15.825119 -12.897009 -21.136126 -2.416023 -16.186443 1.830330 4.794549 0.000000 0.000000 0.000000 7.125000 0.000000 0.000000 8.672334 34.865952 2.178786
0.617317 17.743330 -31.241799 -1.329984 2.129165 1.642615 0.000000 0.000000 0.000000 -20.656752 -4.943308 -9.726798 2.891048 10.516536 30.666233 0.339330 10.503473 -19.334274 0.110735 -2.145323 -5.907462 0.000000 0.000000 0.000000 19.806992 1.853824 -11.300400 -3.341251 -11.227944 33.052732 -0.515167 -12.714058 -23.470796 -0.013770 0.757827 -2.082670 -1.905060 -2.014318 1.313862 3.463163 -2.653463 -2.363547 4.746297 -1.240273 -2.920351 8.472704 2.860333 -21.115316 -9.065342 3.744058 24.428756 -4.226913 1.306031 11.852583 0.000000 0.000000 0.000000 -0.472709 7.648700 -15.697841 14.395577 -23.297366 2.982741 10.785199 -3.445948 -2.076655 0.000000 0.000000 0.000000 -7.125000 0.000000 0.000000 -12.645145 31.922879 -4.134506 0.000000 0.000000 0.000000 -6.779071 4.915484 14.964846 -12.773858 -20.954893 -2.371795 -15.953964 2.274485 4.272594 0.000000 0.000000 0.000000 7.125000 0.000000 0.000000 8.795776 34.319501 2.328417
